<svg width="56" height="92" viewBox="0 0 56 92" fill="none" xmlns="http://www.w3.org/2000/svg">
<path d="M54.4022 36.8347C55.4349 33.9657 55.9805 30.8849 55.9805 27.6693C55.9805 12.4194 43.4321 0 27.9805 0C12.5289 0 0 12.4194 0 27.6693C0 30.8849 0.565066 33.9657 1.57829 36.8347C0.545581 39.7036 0 42.7844 0 46C0 49.2156 0.565066 52.2964 1.57829 55.1653C0.545581 58.0343 0 61.1151 0 64.3307C0 79.5806 12.5484 92 28 92C43.4516 92 56 79.5998 56 64.3307C56 61.1151 55.4349 58.0343 54.4217 55.1653C55.4544 52.2964 56 49.2156 56 46C56 42.7844 55.4349 39.7036 54.4022 36.8347ZM0.974252 27.6693C0.974252 12.9393 13.0939 0.962746 28 0.962746C42.9061 0.962746 55.0257 12.9393 55.0257 27.6693C55.0257 30.365 54.6166 32.9644 53.8566 35.4098C49.6479 25.3972 39.6326 18.3499 28 18.3499C16.3674 18.3499 6.35212 25.3972 2.14335 35.4098C1.38344 32.9644 0.974252 30.365 0.974252 27.6693ZM28 55.3194C35.9694 55.3194 43.1788 52.0075 48.2839 46.7124C50.4857 49.1771 52.2199 52.0268 53.389 55.1653C49.5894 65.3897 39.6521 72.6873 28.0195 72.6873C16.3869 72.6873 6.43006 65.3704 2.64996 55.1653C3.81907 52.0268 5.55324 49.1771 7.75505 46.7124C12.8212 52.0075 20.0306 55.3194 28 55.3194ZM28 54.3566C20.2839 54.3566 13.3083 51.1411 8.37857 46C13.3083 40.8589 20.2839 37.6434 28 37.6434C35.7161 37.6434 42.6917 40.8589 47.6214 46C42.6917 51.1411 35.7161 54.3566 28 54.3566ZM28 36.6806C20.0306 36.6806 12.8212 39.9925 7.71607 45.2876C5.51426 42.8229 3.7801 39.9732 2.61099 36.8347C6.41058 26.6103 16.3479 19.3127 27.9805 19.3127C39.6131 19.3127 49.5699 26.6295 53.35 36.8347C52.1809 39.9732 50.4468 42.8229 48.2449 45.2876C43.1788 39.9925 35.9694 36.6806 28 36.6806ZM0.974252 46C0.974252 43.3043 1.38344 40.7049 2.14335 38.2595C3.35143 41.1092 5.00765 43.7279 7.05358 46C5.00765 48.2721 3.33194 50.8908 2.14335 53.7405C1.38344 51.2951 0.974252 48.6957 0.974252 46ZM55.0257 64.3307C55.0257 79.0607 42.9061 91.0373 28 91.0373C13.0939 91.0373 0.974252 79.0607 0.974252 64.3307C0.974252 61.635 1.38344 59.0356 2.14335 56.5902C6.35212 66.6028 16.3674 73.6501 28 73.6501C39.6326 73.6501 49.6479 66.6028 53.8566 56.5902C54.6166 59.0356 55.0257 61.635 55.0257 64.3307ZM48.9464 46C50.9923 43.7279 52.6681 41.1092 53.8566 38.2595C54.6166 40.7049 55.0257 43.3043 55.0257 46C55.0257 48.6957 54.6166 51.2951 53.8566 53.7405C52.6486 50.8908 50.9923 48.2721 48.9464 46Z" fill="white"/>
</svg>
