<svg width="274" height="58" viewBox="0 0 274 58" fill="none" xmlns="http://www.w3.org/2000/svg">
<path d="M274 50.1875C274 51.2292 273.438 52.0625 272.312 52.6875C271.188 53.3125 270.062 53.625 268.938 53.625C267.646 53.625 266.812 53.1667 266.438 52.25C266.312 51.9583 266.188 49.1667 266.062 43.875C262.479 45.9167 257.75 47.9792 251.875 50.0625C245.333 52.3542 240.479 53.5 237.312 53.5C235.062 53.5 233.938 52.2708 233.938 49.8125C233.938 49.5208 233.958 49 234 48.25C234.042 47.5833 234.042 47.0625 234 46.6875V45.9375C233.958 42.7292 233.729 37 233.312 28.75C232.979 21.5 232.812 15.7917 232.812 11.625C232.812 8.33333 233.062 6.125 233.562 5C234.396 3.20833 236.271 2.3125 239.188 2.3125C240.896 2.3125 241.75 2.91667 241.75 4.125C241.75 3.95833 241.5 6.1875 241 10.8125C240.417 15.8958 240.125 23.1042 240.125 32.4375C240.125 39.4375 240.479 43.25 241.188 43.875C241.438 44.0833 241.833 44.1875 242.375 44.1875C244.333 44.1875 248.229 43.0208 254.062 40.6875C258.646 38.8125 262.521 37.0625 265.688 35.4375C265.229 25.6875 265 17.6667 265 11.375C265 8.375 265.25 6.29167 265.75 5.125C266.583 3.20833 268.333 2.25 271 2.25C272.958 2.25 273.938 2.875 273.938 4.125C273.938 5.29167 273.833 6.75 273.625 8.5C273.292 11.0833 273.104 12.5208 273.062 12.8125C272.562 17.7292 272.312 23.375 272.312 29.75C272.312 34.2083 272.625 38.8125 273.25 43.5625C273.75 47.6042 274 49.8125 274 50.1875Z" fill="white"/>
<path d="M227.562 6.5C227.562 6.83333 226.667 9.08333 224.875 13.25C222.708 18.375 220.604 24.4583 218.562 31.5C218.562 31.5 216.917 37.7083 213.625 50.125C213 52.3333 211.854 53.4375 210.188 53.4375C209.479 53.4375 208.875 52.8542 208.375 51.6875C208.125 51.1042 207.271 48.2292 205.812 43.0625C204.938 40.0625 203.646 36.3958 201.938 32.0625C200.521 28.4792 199.083 24.8958 197.625 21.3125C193.667 32.4792 190.208 43.375 187.25 54C186.667 56.1667 185.521 57.25 183.812 57.25C183.021 57.25 182.417 56.6875 182 55.5625C181.583 54.4792 181.188 53.0833 180.812 51.375C180.479 49.9583 180.167 48.5417 179.875 47.125C176.292 32.875 173.083 22.1667 170.25 15C168.458 10.4167 167.562 8.04167 167.562 7.875C167.562 6.875 168.125 5.75 169.25 4.5C170.417 3.20833 171.5 2.5625 172.5 2.5625C173 2.5625 173.417 2.79167 173.75 3.25C174.5 4.25 176.167 9.58333 178.75 19.25C179.958 23.9583 181.875 30.4375 184.5 38.6875C186.292 32.5625 189.292 23.9792 193.5 12.9375C195.125 8.72917 196.833 6.625 198.625 6.625C199.417 6.625 200.083 7.27083 200.625 8.5625C200.75 8.85417 201.042 9.85417 201.5 11.5625C201.75 12.4792 203.042 16.0625 205.375 22.3125C207.083 26.9375 208.708 31.6875 210.25 36.5625C211.75 31.6875 215.062 21.3125 220.188 5.4375C220.438 4.47917 220.938 3.10417 221.688 1.3125C222.146 0.479167 222.646 0.0625 223.188 0.0625C224.188 0.0625 225.167 0.916667 226.125 2.625C227.083 4.16667 227.562 5.45833 227.562 6.5Z" fill="white"/>
<path d="M162 50.1875C162 51.2292 161.438 52.0625 160.312 52.6875C159.188 53.3125 158.062 53.625 156.938 53.625C155.646 53.625 154.812 53.1667 154.438 52.25C154.312 51.9583 154.188 49.1667 154.062 43.875C150.479 45.9167 145.75 47.9792 139.875 50.0625C133.333 52.3542 128.479 53.5 125.312 53.5C123.062 53.5 121.938 52.2708 121.938 49.8125C121.938 49.5208 121.958 49 122 48.25C122.042 47.5833 122.042 47.0625 122 46.6875V45.9375C121.958 42.7292 121.729 37 121.312 28.75C120.979 21.5 120.812 15.7917 120.812 11.625C120.812 8.33333 121.062 6.125 121.562 5C122.396 3.20833 124.271 2.3125 127.188 2.3125C128.896 2.3125 129.75 2.91667 129.75 4.125C129.75 3.95833 129.5 6.1875 129 10.8125C128.417 15.8958 128.125 23.1042 128.125 32.4375C128.125 39.4375 128.479 43.25 129.188 43.875C129.438 44.0833 129.833 44.1875 130.375 44.1875C132.333 44.1875 136.229 43.0208 142.062 40.6875C146.646 38.8125 150.521 37.0625 153.688 35.4375C153.229 25.6875 153 17.6667 153 11.375C153 8.375 153.25 6.29167 153.75 5.125C154.583 3.20833 156.333 2.25 159 2.25C160.958 2.25 161.938 2.875 161.938 4.125C161.938 5.29167 161.833 6.75 161.625 8.5C161.292 11.0833 161.104 12.5208 161.062 12.8125C160.562 17.7292 160.312 23.375 160.312 29.75C160.312 34.2083 160.625 38.8125 161.25 43.5625C161.75 47.6042 162 49.8125 162 50.1875Z" fill="white"/>
<path d="M112 50.5625C112 51.4792 111.354 52.25 110.062 52.875C108.979 53.375 107.917 53.625 106.875 53.625C105.042 53.625 104.125 52.25 104.125 49.5C104.125 49.1667 104.125 48.6458 104.125 47.9375C104.167 47.3125 104.188 46.8542 104.188 46.5625L104.125 45.4375C104.083 42.2708 103.896 36 103.562 26.625C103.312 18.8333 103.188 12.5833 103.188 7.875C103.188 4.20833 105.271 2.375 109.438 2.375C111.104 2.375 111.938 2.95833 111.938 4.125C111.938 5.29167 111.833 6.75 111.625 8.5C111.292 11.0417 111.104 12.4792 111.062 12.8125C110.604 17.7708 110.375 22.7708 110.375 27.8125C110.375 34.2292 110.646 39.7292 111.188 44.3125C111.229 44.5625 111.396 45.6042 111.688 47.4375C111.896 48.6875 112 49.7292 112 50.5625Z" fill="white"/>
<path d="M97 17.625C97 23.4583 93.875 28.4375 87.625 32.5625C83 35.5625 77.2083 37.8333 70.25 39.375C76.4167 42.9167 81.6875 45.2292 86.0625 46.3125C86.5625 46.3958 87.3125 46.5625 88.3125 46.8125C89.2292 47.1875 89.6875 47.7292 89.6875 48.4375C89.6875 49.1458 89.3125 49.8125 88.5625 50.4375C87.8125 51.0208 87.0625 51.3125 86.3125 51.3125C83.4792 51.3125 79.5208 50.5208 74.4375 48.9375C69.7708 47.5208 65.9583 46.0417 63 44.5C63.0417 45.1667 63.25 46.375 63.625 48.125C63.9583 49.6667 64.125 50.9167 64.125 51.875C64.125 52.8333 63.5417 53.625 62.375 54.25C61.4167 54.75 60.3958 55 59.3125 55C57.9792 55 57.1042 54.5833 56.6875 53.75C56.1042 52.625 55.6667 42.3125 55.375 22.8125C54.5 22.6042 53.7292 22.0417 53.0625 21.125C52.3958 20.1667 52.0625 19.2292 52.0625 18.3125C52.0625 17.3125 52.625 16.1042 53.75 14.6875C60.9167 5.6875 68.9167 1.1875 77.75 1.1875C82.75 1.1875 87.1458 2.625 90.9375 5.5C94.9792 8.66667 97 12.7083 97 17.625ZM89.5 18.9375C89.5 16.0208 87.9583 13.5625 84.875 11.5625C82.1667 9.85417 79.2292 9 76.0625 9C71.4375 9 66.7292 11.3958 61.9375 16.1875C61.8125 18.8125 61.75 21.4583 61.75 24.125C61.75 27.25 61.8333 30.3958 62 33.5625C74.25 33.2292 82.1875 31.0833 85.8125 27.125C88.2708 24.375 89.5 21.6458 89.5 18.9375Z" fill="white"/>
<path d="M45.625 42.3125C45.625 46.6458 41.875 50.0625 34.375 52.5625C29.7917 54.1042 22.7708 54.875 13.3125 54.875C11.1458 54.875 9.6875 54.8333 8.9375 54.75C7.10417 54.5 5.85417 53.875 5.1875 52.875C4.5625 51.875 4.08333 42.1667 3.75 23.75C3.58333 23.7917 3.41667 23.8125 3.25 23.8125C2.33333 23.8125 1.60417 23.2708 1.0625 22.1875C0.645833 21.3125 0.4375 20.375 0.4375 19.375C0.4375 17.125 2.04167 14.2708 5.25 10.8125C7.95833 7.9375 10.5833 5.75 13.125 4.25C16.7083 2.16667 20.7083 1.125 25.125 1.125C30.25 1.125 34.4375 2.41667 37.6875 5C41.1875 7.83333 42.9375 11.75 42.9375 16.75C42.9375 21.8333 39.6042 26.3542 32.9375 30.3125C36.0625 31.1875 38.8125 32.6042 41.1875 34.5625C44.1458 36.9792 45.625 39.5625 45.625 42.3125ZM36.75 17.4375C36.75 14.7292 35.25 12.6042 32.25 11.0625C29.7917 9.77083 27.1042 9.125 24.1875 9.125C19.6042 9.125 14.9792 11.5 10.3125 16.25C10.2292 18.7917 10.1875 21.3958 10.1875 24.0625C10.1875 25.9792 10.2083 27.9583 10.25 30C22.1667 29.6667 29.8333 27.75 33.25 24.25C35.5833 21.9167 36.75 19.6458 36.75 17.4375ZM39.375 42.4375C39.375 40.3125 37.0417 38.5833 32.375 37.25C28.7917 36.2083 25.5417 35.6875 22.625 35.6875C18.2083 35.6875 14.25 36.9792 10.75 39.5625C11 42.2292 11.2917 44.7083 11.625 47C16.3333 47.3333 20.375 47.5 23.75 47.5C30.2917 47.5 34.5625 46.875 36.5625 45.625C38.4375 44.5417 39.375 43.4792 39.375 42.4375Z" fill="white"/>
</svg>
